<?xml version="1.0" standalone="no"?>
<svg width="1506px" height="1042px" viewBox="0 0 1506 1042" version="1.1" xmlns="http://www.w3.org/2000/svg" xmlns:xlink="http://www.w3.org/1999/xlink">
    <!-- Generator: Sketch 60 (88103) - https://sketch.com -->
    <title>Education Study</title>
    <desc>Created by Webpixels.</desc>
    <g id="Page-1" stroke="none" stroke-width="1" fill="none" fill-rule="evenodd">
        <g id="education-study" transform="translate(-222.000000, -470.000000)">
            <g id="Layer_2" transform="translate(223.000000, 470.000000)">
                <path d="M1172,428.6 L1172,428.6 C1055.3,428.6 960.7,523.2 960.7,639.9 L960.7,794.2 L1383.3,794.2 L1383.3,639.9 C1383.3,523.2 1288.7,428.6 1172,428.6 Z" id="Path" stroke="#CDD4E4" stroke-width="3" fill="#F0F1F6" fill-rule="nonzero" stroke-linecap="round" stroke-linejoin="round"></path>
                <path d="M1172,448.7 L1172,448.7 C1065.6,448.7 979.4,534.9 979.4,641.3 L979.4,782 L1364.6,782 L1364.6,641.3 C1364.6,534.9 1278.4,448.7 1172,448.7 Z" id="Path" fill="#CDD4E4" fill-rule="nonzero"></path>
                <path d="M564.4,1019.1 C564.4,1019.1 561.3,990.5 593.6,987.1 C625.9,983.7 640.3,963.2 640.3,963.2 L694.8,963.2 L692.5,1013.2 C692.5,1013.1 631.9,1015.9 564.4,1019.1 Z" id="Path" fill="#FFC833" fill-rule="nonzero"></path>
                <path d="M613.8,1039.8 C613.8,1039.8 610.5,1009 644.5,1005.3 C678.5,1001.6 693.6,979.6 693.6,979.6 L750.9,979.6 L748.5,1033.3 C748.5,1033.3 682.3,1036.9 613.8,1039.8 Z" id="Path" fill="#FFC833" fill-rule="nonzero"></path>
                <path d="M614.5,1029.8 L748.9,1023.1 L748.4,1033.3 L613.7,1039.7 C613.7,1039.7 610.4,1008.9 644.4,1005.2 C678.4,1001.5 693.5,979.5 693.5,979.5" id="Path" stroke="#FDAB00" stroke-width="3" stroke-linecap="round" stroke-linejoin="round"></path>
                <path d="M606,560.8 L611.5,954.1 C611.5,954.1 626,966.3 667.2,963.5 L667.2,566.4 L606,560.8 Z" id="Path" fill="#283444" fill-rule="nonzero"></path>
                <path d="M745.2,571.7 L773.5,976.8 C773.5,976.8 752.3,989.8 717.9,986.4 C683.5,983 664,975.4 664,975.4 L646.6,568 L745.2,571.7 Z" id="Path" fill="#283444" fill-rule="nonzero"></path>
                <path d="M773.6,976.8 C773.6,976.8 752.4,989.8 718,986.4 C683.6,983 664.1,975.4 664.1,975.4 L646.6,568" id="Path" stroke="#141B25" stroke-width="3" stroke-linecap="round" stroke-linejoin="round"></path>
                <path d="M181.3,335.1 C181.3,335.1 199.8,325.4 201.5,294.3 C203.2,263.1 188.5,209.8 196.4,188.3 C204.3,166.8 207,155.6 222.1,140.5 C237.2,125.4 248.6,111.8 252,92.9 C255.4,74 269.8,65.3 280.3,69.8 C290.9,74.3 301.5,95.9 297.7,110.6 C293.9,125.3 281.4,143.9 273.9,171.5 C266.3,199.1 262.2,209.7 274.7,232.4 C287.2,255.1 301.5,253.2 304.2,286.8 C306.8,320.4 301.6,409.6 301.6,409.6 L253.2,698 L207.7,755.8 L185.2,755.8 L152.9,615.8 L145.4,432 L181.3,335.1 Z" id="Path" fill="#37B27F" fill-rule="nonzero"></path>
                <line x1="0.9" y1="853" x2="393.7" y2="853" id="Path" stroke="#CDD4E4" stroke-width="3" stroke-linecap="round" stroke-linejoin="round"></line>
                <line x1="428.3" y1="853" x2="574.6" y2="853" id="Path" stroke="#CDD4E4" stroke-width="3" stroke-linecap="round" stroke-linejoin="round"></line>
                <line x1="796.6" y1="853" x2="1502.7" y2="853" id="Path" stroke="#CDD4E4" stroke-width="3" stroke-linecap="round" stroke-linejoin="round"></line>
                <path d="M689.7,249.4 L709.7,218.8 C709.7,218.8 695.9,225.6 684.8,224.8 C673.7,224 676.1,200.8 678.4,185.3 C680.7,169.8 693.1,138.2 693.1,138.2 C693.1,138.2 699.4,121.2 730.9,128 C762.5,134.8 765.9,158.8 764.3,168.4 C762.8,178 739.7,209.4 739.7,209.4 L735.6,236.6 L717.1,253.7 L698.7,255.7 L689.7,249.4 Z" id="Path" fill="#FFDED6" fill-rule="nonzero"></path>
                <path d="M271.9,755.7 L206.7,755.7 L205.6,755.7 L140.4,755.7 C140.4,755.7 130.8,783.8 133.9,813.5 C137,843.2 152.6,867.4 175,885.2 L205.6,885.2 L206.7,885.2 L237.3,885.2 C259.7,867.3 275.3,843.2 278.4,813.5 C281.5,783.8 271.9,755.7 271.9,755.7 Z" id="Path" fill="#CDD4E4" fill-rule="nonzero"></path>
                <path d="M195.7,718.6 C195.7,718.6 189.9,699.6 203,687.1 C216.1,674.6 231.9,653.9 241.6,638.6 C251.2,623.3 252.9,606 243,583 C233.1,560 236.2,553.6 244.1,529.9 C252,506.2 250.3,487.2 238.7,460.3 C227.1,433.4 243.2,410.1 265.3,399.1 C287.4,388 291.4,352.9 284.3,334.8 C277.2,316.7 263.6,282.4 299.3,284.3 C335,286.2 324.5,348.6 323.1,358.3 C321.7,367.9 317.1,377.6 320.5,391.5 C323.9,405.4 337.2,409.9 345.2,423 C353.2,436.1 352.3,452.5 345.2,467.2 C338.1,481.9 328.5,495.5 324.5,512.3 C320.5,529 322.8,537 331,553.4 C339.2,569.8 345.2,584.3 338.1,599.3 C331,614.3 325.7,624.8 304.8,647.5 C283.9,670.2 295.6,670.5 300.7,681.5 C305.8,692.6 288.7,705.9 272.6,714.4 C256.5,722.9 239.6,726.8 227.6,736.2 C215.6,745.6 216,755.8 216,755.8 L191.9,755.8 L195.7,718.6 Z" id="Path" fill="#52CA95" fill-rule="nonzero"></path>
                <path d="M178.3,755.7 C178.3,755.7 172.9,734.7 150.2,729.9 C127.5,725.1 100.2,721.7 94.9,702.7 C89.7,683.7 98.7,671.8 99.6,663.3 C100.5,654.8 97.5,638.2 86.7,631.7 C75.9,625.2 53.7,611.6 54.5,584.4 C55.4,557.2 77.3,546 63.1,516.2 C48.9,486.4 33.6,460.9 50.1,425.2 C66.6,389.5 89.5,409 96.6,413.6 C103.7,418.1 118.1,420.1 125.5,401.4 C132.9,382.7 123.8,343.3 122.9,330 C122,316.7 128.3,273 156.1,264.2 C183.9,255.4 183.9,298.5 183.3,303 C182.7,307.5 180.2,336.7 181.6,349.8 C183,362.8 188.1,369.1 195.5,378.1 C202.9,387.1 205.1,400.2 200.3,414.4 C195.5,428.6 185,435.4 180.2,450.1 C175.4,464.8 174.5,477.9 185.3,489.2 C196.1,500.5 200.9,510.5 198.3,520.4 C195.7,530.3 186.4,544.5 183.8,557.5 C181.2,570.5 173.3,582.4 191.5,609.1 C209.6,635.7 206.2,642 200.6,655.9 C194.9,669.8 186.4,680 187.3,696.4 C188.2,712.8 200.3,721.1 201.2,731.8 C202.1,742.6 195,755.6 195,755.6 L178.3,755.6 L178.3,755.7 Z" id="Path" fill="#52CA95" fill-rule="nonzero"></path>
                <path d="M620.9,455.6 L495.4,481.7 C495.4,481.7 473.1,488.9 470.8,511.2 C468.5,533.5 476.5,537.7 499.9,557.7 C523.3,577.7 618.5,659.7 618.5,659.7 C618.5,659.7 640.7,672.1 684.7,644.1 L689.8,639.4 L728.2,579.4 L620.9,455.6 Z" id="Path" fill="#8A34FF" fill-rule="nonzero"></path>
                <path d="M600.4,557.9 C600.4,557.9 606.4,316.4 688.8,249.2 C688.8,249.2 709.8,256 736.1,236.4 L753.1,277.3 C753.1,277.3 761.6,486.8 758.8,522.7 C756,558.6 740.7,570.3 740.7,570.3 C740.7,570.3 631.3,577.7 600.4,557.9 Z" id="Path" fill="#FD8063" fill-rule="nonzero"></path>
                <path d="M685.4,591.3 L627.8,609.4 C627.8,609.4 611.2,615.9 615.1,636 C619.1,656.1 627.1,658.1 636.6,657.5 C646,656.9 675.2,646.5 688.6,634 L685.4,591.3 Z" id="Path" fill="#FFFFFF" fill-rule="nonzero"></path>
                <path d="M594.4,412.1 L494.6,427.7 C494.6,427.7 481,429.7 477,441.6 C473,453.5 471.3,465.8 477,474.9 C482.7,484 615.7,592.1 615.7,592.1 C615.7,592.1 623.7,600 642.4,595.8 C668.8,589.8 740.6,570.3 740.6,570.3 L744.3,531.2 L594.4,412.1 Z" id="Path" fill="#FFC833" fill-rule="nonzero"></path>
                <path d="M670.2,603.7 C670.2,603.7 648,604.2 636.6,610.6 C625.3,617 644.1,618.1 644.1,618.1 L665.9,619.5 C665.9,619.5 612.6,629.5 602.2,640.6 C591.8,651.7 613.3,664 623.9,664.2 C634.5,664.4 664.7,663.4 689.8,639.3 C689.8,639.3 690.2,628.5 684.8,615.2 C679.5,601.9 670.2,603.7 670.2,603.7 Z" id="Path" fill="#FFDED6" fill-rule="nonzero"></path>
                <path d="M744,531.9 L645.7,558.7 C645.7,558.7 629.3,562 625.7,574.9 C623.1,584 621,592.3 631.6,593.2 C642.9,594.2 684.5,580.5 684.5,580.5 L737.2,567.6 L744,531.9 Z" id="Path" fill="#FFFFFF" fill-rule="nonzero"></path>
                <path d="M722,260.2 C741.3,251.3 751,272.1 751,272.1 C751,272.1 767.1,311.3 775.4,344.5 C783.7,377.8 804.5,422.4 805.3,462.4 C806.1,502.5 753.9,561 753.9,561 L689.8,639.3 C689.8,639.3 686,621.7 681.3,615.5 C676.6,609.3 668.8,602.5 668.8,602.5 C668.8,602.5 725.9,515.3 751.7,488.7 L714.7,322.9 C714.8,322.9 702.7,269.1 722,260.2 Z" id="Path" fill="#FD8063" fill-rule="nonzero"></path>
                <path d="M606,375.9 L515.8,394.4 C515.8,394.4 499.5,398 497.8,414.2 C496.1,430.4 508,438.4 508,438.4 L636.5,544.8 C636.5,544.8 642.6,552.5 658.9,548.1 C675.2,543.7 753.9,520.3 753.9,520.3 L757.8,485 L606,375.9 Z" id="Path" fill="#52CA95" fill-rule="nonzero"></path>
                <rect id="Rectangle" fill="#F0F1F6" fill-rule="nonzero" x="926.8" y="20.4" width="239.1" height="330.8"></rect>
                <rect id="Rectangle" fill="#F0F1F6" fill-rule="nonzero" x="1180.8" y="20.4" width="239.1" height="330.8"></rect>
                <path d="M915,82.2 C916,81.6 927.2,74.6 938.2,79.6 C946.3,83.3 949.2,91.2 949.5,92.1 C953.7,103.8 943.9,109.8 947.5,121.9 C948.1,124 948.3,123.4 959.4,138.9 C965.8,147.8 969,152.3 969.3,154.2 C971.1,164.3 962,168.9 961.4,181.4 C961.3,183.9 961.2,192 966.2,199 C970.7,205.2 974.3,203.5 978.7,208.9 C985.8,217.6 984.1,231.2 983,239.5 C981.4,251.4 978.2,253.1 980.2,258.2 C983.6,266.9 994,264.6 999.8,274.4 C1003.9,281.2 1003.6,290.6 1000.7,297.1 C997.5,304.1 993.2,303.4 989.4,311.6 C988.5,313.5 983.9,323.4 988,329.7 C991,334.4 996,332.9 1001.3,337.9 C1005.5,341.9 1007,347.3 1007.5,351.2 L926.9,351.2 L915,82.2 Z" id="Path" fill="#CDD4E4" fill-rule="nonzero"></path>
                <path d="M1429.5,111.1 C1414.2,110.3 1405.4,106.3 1401.9,99.8 C1399.9,96 1401.1,94.2 1398.9,89 C1398.6,88.3 1391.6,72.9 1376.6,71.6 C1368,70.9 1359.3,75 1354.5,81.4 C1349,88.8 1353.1,93.2 1347.9,106.3 C1345.7,111.8 1340.8,124.2 1331.5,126.3 C1325.2,127.7 1322.9,123.2 1315.8,125 C1309.9,126.4 1303.6,131.5 1302.6,137.7 C1301.3,145 1308.5,147.7 1307.9,155.5 C1307.4,162.7 1300.7,167.7 1294.9,172.1 C1282.3,181.6 1276.2,178.1 1270.5,185.5 C1264.3,193.5 1265.6,205.1 1266.3,211.4 C1267.6,223.1 1272,225.5 1270.3,233.3 C1269,239.2 1266.2,239.2 1260.1,249.7 C1254.2,259.8 1251.3,264.8 1251.8,270.7 C1252.8,281.5 1263.7,284 1264.7,294.3 C1265.3,301 1260.1,302.7 1257.3,311.3 C1252.8,325.3 1258.9,337.7 1259.8,339.6 C1263.3,347.2 1268.6,352.1 1272.3,354.9 L1424,354.9 L1429.5,111.1 Z" id="Path" fill="#CDD4E4" fill-rule="nonzero"></path>
                <path d="M907.4,0.9 L907.4,373.4 L1438,373.4 L1438,0.9 L907.4,0.9 Z M1165.9,351.2 L926.8,351.2 L926.8,20.4 L1165.9,20.4 L1165.9,351.2 Z M1419.9,351.2 L1180.8,351.2 L1180.8,20.4 L1419.9,20.4 L1419.9,351.2 Z" id="Shape" fill="#EC84C2" fill-rule="nonzero"></path>
                <path d="M985.3,923.8 L936,923.8 L936,919.5 C936,910.1 943.6,902.6 952.9,902.6 L968.3,902.6 C977.7,902.6 985.2,910.2 985.2,919.5 L985.2,923.8 L985.3,923.8 Z" id="Path" fill="#CDD4E4" fill-rule="nonzero"></path>
                <path d="M1408,923.8 L1358.7,923.8 L1358.7,919.5 C1358.7,910.1 1366.3,902.6 1375.6,902.6 L1391,902.6 C1400.4,902.6 1407.9,910.2 1407.9,919.5 L1407.9,923.8 L1408,923.8 Z" id="Path" fill="#CDD4E4" fill-rule="nonzero"></path>
                <rect id="Rectangle" stroke="#CDD4E4" stroke-width="3" fill="#F0F1F6" fill-rule="nonzero" stroke-linecap="round" stroke-linejoin="round" x="997" y="757.4" width="350.1" height="145.1"></rect>
                <path d="M1338.2,757.4 L1005.7,757.4 L1005.7,730.4 C1005.7,718.5 1015.3,708.9 1027.2,708.9 L1316.6,708.9 C1328.5,708.9 1338.1,718.5 1338.1,730.4 L1338.1,757.4 L1338.2,757.4 Z" id="Path" stroke="#CDD4E4" stroke-width="3" fill="#F0F1F6" fill-rule="nonzero" stroke-linecap="round" stroke-linejoin="round"></path>
                <path d="M689.3,148.4 C689.3,148.4 669.2,143.5 669.299628,124.7 C669.4,105.9 683,105.1 693.4,107.8 C693.4,107.8 696.5,100.7 710.4,102.7 C724.3,104.7 722.7,115.2 722.7,115.2 C722.7,115.2 724.5,104 739,106.3 C753.5,108.6 750.9,121.6 750.9,121.6 C750.9,121.6 760.8,114.3 769.2,126.5 C777.6,138.7 771.9,159.9 766.8,170.6 C761.7,181.4 756.4,194.2 739.8,209.5 L734.9,187.6 C734.9,187.6 743.5,183.2 745.8,171.4 C748.1,159.6 733,155.7 729.6,163.5 C726.2,171.3 723.9,183.8 723.9,183.8 L714.7,182 L718.5,152.1 C718.5,152.1 715.7,148.1 707.9,146.9 C700.1,145.7 695.9,148.1 689.3,148.4 Z" id="Path" fill="#2B3745" fill-rule="nonzero"></path>
                <path d="M627.3,305.9 L530.2,332.8 C530.2,332.8 507.9,336.7 506.4,353.6 C504.9,370.6 506,377.4 512.4,381.1 C518.8,385 638.7,482 638.7,482 C638.7,482 653.1,497 679.8,490.6 C706.5,484.2 750.3,472.6 750.3,472.6 L770.5,430.1 L627.3,305.9 Z" id="Path" fill="#283444" fill-rule="nonzero"></path>
                <path d="M641.8,284.3 L553.1,297.3 C553.1,297.3 542,299.9 539.7,312.6 C537.4,325.4 549.9,334.2 549.9,334.2 L662.7,417.7 C662.7,417.7 668.9,424.5 685.8,422.4 C702.6,420.3 763.8,402.4 763.8,402.4 L763.1,399.6 L750.4,402.6 L746.8,376.5 L759.4,373.7 L759.4,369.8 L641.8,284.3 Z" id="Path" fill="#8A34FF" fill-rule="nonzero"></path>
                <path d="M655.3,251 L594.4,256.9 C594.4,256.9 583.1,256.9 579.5,271.6 C575.9,286.3 584.8,294.5 584.8,294.5 C584.8,294.5 667.7,358.4 676.4,360.6 C685.1,362.9 739.6,346.6 739.6,346.6 L735.3,314.7 L655.3,251 Z" id="Path" fill="#FFC833" fill-rule="nonzero"></path>
                <path d="M735.5,316.9 L684.2,329.6 C684.2,329.6 671.8,334.7 671.899398,343.9 C672,353.1 677.9,357.2 682,357 C686.1,356.8 701.6,353.6 712.9,350.7 C724.2,347.8 739.1,343.3 739.1,343.3 L735.5,316.9 Z" id="Path" fill="#FFFFFF" fill-rule="nonzero"></path>
                <path d="M757.6,374.2 L682.3,390.1 C682.3,390.1 667.6,392.5 665.6,402.9 C663.6,413.2 669.7,419.3 681.3,418.6 C692.9,417.9 717.2,411.1 717.2,411.1 L760.8,400.3 C760.8,400.3 755.4,396 755.3,387.4 C755.1,378.7 757.6,374.2 757.6,374.2 Z" id="Path" fill="#FFFFFF" fill-rule="nonzero"></path>
                <path d="M769.1,433.2 L671.5,454.5 C671.5,454.5 657.6,456.2 653.8,467.3 C650,478.4 650.7,487.6 666.3,488.8 C666.3,488.8 674.7,488.2 685.6,485.3 C696.5,482.3 752.5,468.2 752.5,468.2 L769.1,433.2 Z" id="Path" fill="#FFFFFF" fill-rule="nonzero"></path>
                <path d="M757.5,488.4 L658.8,515.5 C658.8,515.5 649.7,517.8 646.3,526.5 C642.9,535.2 640.9,545.2 651.5,545.2 C651.5,545.2 654.3,545.5 658.1,544.5 C661.9,543.5 754.3,517 754.3,517 L757.5,488.4 Z" id="Path" fill="#FFFFFF" fill-rule="nonzero"></path>
                <path d="M687.4,338.7 C687.4,338.7 694.8,342.1 700.6,351.9 C706.5,361.7 707.4,368 707.4,368 L712.9,359.3 L719.8,365.2 C719.8,365.2 718.9,355.4 714.1,348 C709.4,340.6 702.5,334.9 702.5,334.9 L687.4,338.7 Z" id="Path" fill="#EC84C2" fill-rule="nonzero"></path>
                <path d="M683.1,405.9 C683.1,405.9 690.5,409.3 696.3,419.1 C702.2,428.9 703.1,435.2 703.1,435.2 L712.2,425.9 L721.6,431.4 C721.6,431.4 720.7,421.6 715.9,414.2 C711.2,406.8 704.3,401.1 704.3,401.1 L683.1,405.9 Z" id="Path" fill="#EC84C2" fill-rule="nonzero"></path>
                <path d="M683.1,471.9 C683.1,471.9 688.6,475.3 693.1,485.1 C697.5,494.9 698.2,501.2 698.2,501.2 L705.1,491.9 L712.2,497.4 C712.2,497.4 711.5,487.6 707.9,480.2 C704.3,472.8 699.2,467.1 699.2,467.1 L683.1,471.9 Z" id="Path" fill="#5900CB" fill-rule="nonzero"></path>
                <path d="M156.2,264.2 C184,255.4 184,298.5 183.4,303 C182.8,307.5 180.3,336.7 181.7,349.8 C183.1,362.8 188.2,369.1 195.6,378.1 C203,387.1 205.2,400.2 200.4,414.4 C195.6,428.6 185.1,435.4 180.3,450.1 C175.5,464.8 174.6,477.9 185.4,489.2 C196.2,500.5 201,510.5 198.4,520.4 C195.8,530.3 186.5,544.5 183.9,557.5 C181.3,570.5 173.4,582.4 191.6,609.1 C209.7,635.7 206.3,642 200.7,655.9 C195,669.8 186.5,680 187.4,696.4 C188.3,712.8 200.4,721.1 201.3,731.8 C202.2,742.6 195.1,755.6 195.1,755.6" id="Path" stroke="#37B27F" stroke-width="3" stroke-linecap="round" stroke-linejoin="round"></path>
                <path d="M195.7,718.6 C195.7,718.6 189.9,699.6 203,687.1 C216.1,674.6 231.9,653.9 241.6,638.6 C251.2,623.3 252.9,606 243,583 C233.1,560 236.2,553.6 244.1,529.9 C252,506.2 250.3,487.2 238.7,460.3 C227.1,433.4 243.2,410.1 265.3,399.1 C287.4,388 291.4,352.9 284.3,334.8 C277.2,316.7 263.6,282.4 299.3,284.3" id="Path" stroke="#37B27F" stroke-width="3" stroke-linecap="round" stroke-linejoin="round"></path>
                <path d="M960.7,612.3 L960.7,612.3 C940.7,612.3 924.4,628.5 924.4,648.6 L924.4,902.6 L997,902.6 L997,648.6 C997,628.5 980.7,612.3 960.7,612.3 Z" id="Path" stroke="#CDD4E4" stroke-width="3" fill="#F0F1F6" fill-rule="nonzero" stroke-linecap="round" stroke-linejoin="round"></path>
                <path d="M1383.3,612.3 L1383.3,612.3 C1363.3,612.3 1347,628.5 1347,648.6 L1347,902.6 L1419.6,902.6 L1419.6,648.6 C1419.6,628.5 1403.4,612.3 1383.3,612.3 Z" id="Path" stroke="#CDD4E4" stroke-width="3" fill="#F0F1F6" fill-rule="nonzero" stroke-linecap="round" stroke-linejoin="round"></path>
                <path d="M620.9,1016.4 L564.4,1019 C564.4,1019 563.9,1014.9 564.9,1011 L632.4,1008.1" id="Path" stroke="#FDAB00" stroke-width="3" stroke-linecap="round" stroke-linejoin="round"></path>
                <line x1="594.1" y1="259.9" x2="680.9" y2="325.8" id="Path" stroke="#FDAB00" stroke-width="3" stroke-linecap="round" stroke-linejoin="round"></line>
                <line x1="556.7" y1="299.6" x2="676.4" y2="385.2" id="Path" stroke="#5900CB" stroke-width="3" stroke-linecap="round" stroke-linejoin="round"></line>
                <line x1="524.7" y1="338.5" x2="665.2" y2="449.9" id="Path" stroke="#141B25" stroke-width="3" stroke-linecap="round" stroke-linejoin="round"></line>
                <line x1="516.6" y1="399" x2="655.7" y2="510.8" id="Path" stroke="#37B27F" stroke-width="3" stroke-linecap="round" stroke-linejoin="round"></line>
                <line x1="491" y1="433.2" x2="636.6" y2="554.8" id="Path" stroke="#FDAB00" stroke-width="3" stroke-linecap="round" stroke-linejoin="round"></line>
                <line x1="486.7" y1="492.2" x2="623.5" y2="605.7" id="Path" stroke="#5900CB" stroke-width="3" stroke-linecap="round" stroke-linejoin="round"></line>
                <g id="Group" transform="translate(1089.000000, 537.000000)" fill="#CDD4E4" fill-rule="nonzero" stroke="#F0F1F6" stroke-linecap="round" stroke-linejoin="round" stroke-width="3">
                    <circle id="Oval" cx="9.1" cy="9" r="8.3"></circle>
                    <circle id="Oval" cx="9.1" cy="112.8" r="8.3"></circle>
                    <circle id="Oval" cx="156.9" cy="9" r="8.3"></circle>
                    <circle id="Oval" cx="156.9" cy="112.8" r="8.3"></circle>
                </g>
            </g>
        </g>
    </g>
</svg>